<svg width="49" height="49" viewBox="0 0 49 49" fill="none" xmlns="http://www.w3.org/2000/svg">
<g clip-path="url(#clip0)">
<path d="M48.175 10.0596C46.4736 10.8135 44.6458 11.3229 42.7244 11.5532C44.707 10.3669 46.1902 8.49978 46.8974 6.30026C45.0347 7.40666 42.9961 8.18544 40.8702 8.60275C39.4405 7.07631 37.547 6.06456 35.4834 5.72458C33.4199 5.3846 31.3018 5.73542 29.458 6.72256C27.6143 7.7097 26.148 9.27793 25.2869 11.1838C24.4258 13.0896 24.2179 15.2265 24.6957 17.2626C20.9214 17.0731 17.2292 16.0921 13.8585 14.3832C10.4879 12.6744 7.5143 10.2759 5.13063 7.34351C4.31559 8.74946 3.84694 10.3795 3.84694 12.1156C3.84603 13.6784 4.23089 15.2173 4.96737 16.5957C5.70386 17.9741 6.76919 19.1495 8.06885 20.0174C6.56159 19.9694 5.08758 19.5622 3.76951 18.8295V18.9517C3.76936 21.1437 4.52757 23.2681 5.91548 24.9647C7.30339 26.6612 9.23552 27.8253 11.384 28.2595C9.98579 28.6379 8.51985 28.6937 7.09691 28.4225C7.7031 30.3085 8.88388 31.9578 10.474 33.1394C12.0641 34.321 13.9838 34.9758 15.9646 35.0121C12.6022 37.6517 8.44965 39.0834 4.17499 39.0771C3.41778 39.0773 2.66121 39.0331 1.90918 38.9447C6.2482 41.7345 11.2991 43.2151 16.4577 43.2094C33.9199 43.2094 43.4661 28.7465 43.4661 16.203C43.4661 15.7955 43.4559 15.3839 43.4375 14.9764C45.2944 13.6335 46.8972 11.9707 48.1709 10.0657L48.175 10.0596Z" fill="black"/>
</g>
<defs>
<clipPath id="clip0">
<rect width="48.9025" height="48.9025" fill="white"/>
</clipPath>
</defs>
</svg>
