<svg width="50" height="50" viewBox="0 0 50 50" fill="none" xmlns="http://www.w3.org/2000/svg">
<path fill-rule="evenodd" clip-rule="evenodd" d="M15.5745 2.80218C17.9646 2.69215 18.7266 2.66769 24.815 2.66769C30.9033 2.66769 31.6654 2.69418 34.0535 2.80218C36.4416 2.91017 38.0716 3.2912 39.498 3.84339C40.9915 4.40781 42.3465 5.29009 43.4672 6.43115C44.6083 7.54979 45.4885 8.90276 46.0509 10.3984C46.6051 11.8247 46.9841 13.4548 47.0941 15.8388C47.2042 18.2329 47.2286 18.995 47.2286 25.0813C47.2286 31.1697 47.2021 31.9317 47.0941 34.3218C46.9861 36.7058 46.6051 38.3359 46.0509 39.7622C45.4885 41.258 44.6068 42.6133 43.4672 43.7335C42.3465 44.8746 40.9915 45.7548 39.498 46.3172C38.0716 46.8714 36.4415 47.2504 34.0576 47.3605C31.6654 47.4705 30.9033 47.4949 24.815 47.4949C18.7266 47.4949 17.9646 47.4685 15.5745 47.3605C13.1905 47.2525 11.5604 46.8714 10.1341 46.3172C8.63831 45.7548 7.2831 44.8731 6.16278 43.7335C5.0225 42.6142 4.14008 41.2597 3.57706 39.7643C3.02487 38.338 2.64588 36.7079 2.53585 34.3239C2.42582 31.9297 2.40137 31.1676 2.40137 25.0813C2.40137 18.993 2.42786 18.2309 2.53585 15.8428C2.64384 13.4548 3.02487 11.8247 3.57706 10.3984C4.14091 8.90292 5.024 7.54839 6.16482 6.42911C7.28354 5.28907 8.63739 4.40667 10.132 3.84339C11.5584 3.2912 13.1884 2.91221 15.5724 2.80218H15.5745ZM33.8721 6.83663C31.5085 6.72864 30.7994 6.70622 24.815 6.70622C18.8306 6.70622 18.1215 6.72864 15.7578 6.83663C13.5715 6.93647 12.3856 7.3012 11.595 7.60888C10.5497 8.0164 9.80194 8.49931 9.01746 9.28379C8.27383 10.0072 7.70154 10.888 7.34255 11.8614C7.03487 12.6519 6.67014 13.8378 6.5703 16.0242C6.46231 18.3878 6.4399 19.0969 6.4399 25.0813C6.4399 31.0658 6.46231 31.7748 6.5703 34.1385C6.67014 36.3248 7.03487 37.5107 7.34255 38.3013C7.70117 39.2732 8.27374 40.1555 9.01746 40.8789C9.74081 41.6226 10.6231 42.1951 11.595 42.5538C12.3856 42.8614 13.5715 43.2262 15.7578 43.326C18.1215 43.434 18.8285 43.4564 24.815 43.4564C30.8015 43.4564 31.5085 43.434 33.8721 43.326C36.0585 43.2262 37.2444 42.8614 38.035 42.5538C39.0802 42.1462 39.828 41.6633 40.6125 40.8789C41.3562 40.1555 41.9288 39.2732 42.2874 38.3013C42.5951 37.5107 42.9598 36.3248 43.0597 34.1385C43.1677 31.7748 43.1901 31.0658 43.1901 25.0813C43.1901 19.0969 43.1677 18.3878 43.0597 16.0242C42.9598 13.8378 42.5951 12.6519 42.2874 11.8614C41.8799 10.8161 41.397 10.0683 40.6125 9.28379C39.889 8.54021 39.0083 7.96793 38.035 7.60888C37.2444 7.3012 36.0585 6.93647 33.8721 6.83663ZM21.9522 31.9908C23.551 32.6564 25.3313 32.7462 26.989 32.245C28.6467 31.7437 30.0789 30.6825 31.0411 29.2426C32.0033 27.8027 32.4357 26.0734 32.2646 24.35C32.0934 22.6267 31.3292 21.0162 30.1026 19.7937C29.3206 19.0123 28.3751 18.4139 27.3341 18.0417C26.2932 17.6695 25.1826 17.5327 24.0825 17.6413C22.9823 17.7498 21.9199 18.1009 20.9717 18.6693C20.0235 19.2376 19.2131 20.0092 18.5989 20.9284C17.9847 21.8476 17.5819 22.8915 17.4195 23.985C17.2572 25.0785 17.3393 26.1944 17.66 27.2524C17.9807 28.3104 18.532 29.2841 19.2742 30.1034C20.0164 30.9228 20.931 31.5674 21.9522 31.9908ZM16.6687 16.935C17.7384 15.8652 19.0085 15.0166 20.4062 14.4376C21.804 13.8587 23.3021 13.5607 24.815 13.5607C26.3279 13.5607 27.826 13.8587 29.2238 14.4376C30.6215 15.0166 31.8915 15.8652 32.9613 16.935C34.0311 18.0048 34.8797 19.2748 35.4587 20.6726C36.0377 22.0703 36.3356 23.5684 36.3356 25.0813C36.3356 26.5942 36.0377 28.0923 35.4587 29.4901C34.8797 30.8878 34.0311 32.1579 32.9613 33.2277C30.8008 35.3882 27.8705 36.602 24.815 36.602C21.7595 36.602 18.8292 35.3882 16.6687 33.2277C14.5081 31.0671 13.2943 28.1368 13.2943 25.0813C13.2943 22.0259 14.5081 19.0955 16.6687 16.935ZM38.8908 15.2764C39.1558 15.0263 39.3681 14.7256 39.5149 14.392C39.6617 14.0584 39.74 13.6988 39.7454 13.3344C39.7507 12.97 39.6828 12.6082 39.5458 12.2705C39.4088 11.9328 39.2054 11.626 38.9477 11.3683C38.69 11.1106 38.3832 10.9073 38.0455 10.7703C37.7078 10.6332 37.3461 10.5654 36.9817 10.5707C36.6173 10.576 36.2576 10.6544 35.9241 10.8012C35.5905 10.948 35.2898 11.1602 35.0397 11.4253C34.5533 11.9409 34.2871 12.6257 34.2974 13.3344C34.3077 14.0431 34.5938 14.7199 35.095 15.221C35.5962 15.7222 36.273 16.0083 36.9817 16.0187C37.6903 16.029 38.3752 15.7627 38.8908 15.2764Z" fill="black"/>
</svg>
